# xmcd
# Track frame offsets:
# 150
# 13097
# 26898
# 37782
# 50106
# 66967
# 76993
# 89769
# 101048
# 111560
# 122621
# 135964
# 148469
# 159193
# 172670
#
# Disc length: 2438 seconds
# Revision: 1
# Processed by: cddbd v1.5.1PL0 Copyright (c) Steve Scherf et al.
# Submitted via: VisiTrax 2.9.10.228 - For more info visit www.synapsa.com
#
DISCID=cc09840f
DTITLE=Willie Nelson - Coutry Legends
DYEAR=1999
DGENRE=Country
TTITLE0=Crazy
TTITLE1=Funny How Time Slips Away
TTITLE2=Hello Walls
TTITLE3=Willingly (With Shirley Collie)
TTITLE4=Healing Hands of Time
TTITLE5=Touch Me
TTITLE6=All The Things You Are
TTITLE7=You Took My Happy Away
TTITLE8=The Part Where I Cry
TTITLE9=Half a Man
TTITLE10=The Last Letter
TTITLE11=Mr Record Man
TTITLE12=Ain't Life Hell
TTITLE13=Three Days
TTITLE14=There'll Be No Teardrops Tonight
EXTD=
EXTT0=
EXTT1=
EXTT2=
EXTT3=
EXTT4=
EXTT5=
EXTT6=
EXTT7=
EXTT8=
EXTT9=
EXTT10=
EXTT11=
EXTT12=
EXTT13=
EXTT14=
PLAYORDER=
